# xmcd
#
# Track frame offsets:
#	150
#	16197
#	28712
#	41835
#	56270
#	70617
#	80517
#	94720
#	107067
#	125495
#	146282
#	163984
#	176355
#	192450
#
# Disc length: 2826 seconds
#
# Revision: 1
# Processed by: cddbd v1.5.2PL0 Copyright (c) Steve Scherf et al.
# Submitted via: audiograbber 1.83.01
#
DISCID=b50b080e
DTITLE=Michael Schanze - Einfach Das Beste
DYEAR=1900
DGENRE=Deutsche Schlager
TTITLE0=Es ist Morgen und ich liebe Dich noch immer
TTITLE1=Hell wie ein Diamant
TTITLE2=Ich laß Dich nie mehr aus den Augen
TTITLE3=Dich nehm' ich mit
TTITLE4=Ohne Schuster gibt es keine Schuhe
TTITLE5=Hätten Sie heut' Zeit für mich
TTITLE6=Die Story ist alt
TTITLE7=So einen Abend (Wunderland bei Nacht)
TTITLE8=Die erste Liebe
TTITLE9=Tanz nah, ganz nah mit mir
TTITLE10=Und mein Zug fährt immer weiter (By The Time I Get To Phoenix)
TTITLE11=So wie ich (Close To You)
TTITLE12=Es war fünf vor zwölf
TTITLE13=Ich komm ganz gut ohne Dich aus
EXTD=
EXTT0=
EXTT1=
EXTT2=
EXTT3=
EXTT4=
EXTT5=
EXTT6=
EXTT7=
EXTT8=
EXTT9=
EXTT10=
EXTT11=
EXTT12=
EXTT13=
PLAYORDER=
